<?xml version="1.0" encoding="UTF-8"?>
<!DOCTYPE svg PUBLIC "-//W3C//DTD SVG 1.1//EN" "http://www.w3.org/Graphics/SVG/1.1/DTD/svg11.dtd">
<!-- Creator: CorelDRAW Home & Student X6 -->
<svg xmlns="http://www.w3.org/2000/svg" xml:space="preserve" width="210mm" height="210mm" version="1.1" style="shape-rendering:geometricPrecision; text-rendering:geometricPrecision; image-rendering:optimizeQuality; fill-rule:evenodd; clip-rule:evenodd"
viewBox="0 0 21000 21000"
 xmlns:xlink="http://www.w3.org/1999/xlink">
 <defs>
  <style type="text/css">
   <![CDATA[
    .fil0 {fill:white}
   ]]>
  </style>
 </defs>
 <g id="Warstwa_x0020_1">
  <metadata id="CorelCorpID_0Corel-Layer"/>
  <path class="fil0" d="M10505 5109c-2981,0 -5386,2405 -5386,5386 0,2981 2405,5386 5386,5386 2981,0 5386,-2405 5386,-5386 0,-2981 -2405,-5386 -5386,-5386zm0 8888c-1927,0 -3502,-1570 -3502,-3502 0,-1931 1570,-3502 3502,-3502 1931,0 3502,1570 3502,3502 0,1931 -1575,3502 -3502,3502zm6863 -9108c0,698 -563,1256 -1256,1256 -698,0 -1256,-563 -1256,-1256 0,-694 563,-1256 1256,-1256 694,0 1256,563 1256,1256zm3567 1275c-80,-1683 -464,-3173 -1697,-4402 -1228,-1228 -2719,-1613 -4402,-1697 -1734,-98 -6933,-98 -8667,0 -1678,80 -3169,464 -4402,1692 -1233,1228 -1613,2719 -1697,4402 -98,1734 -98,6933 0,8667 80,1683 464,3173 1697,4402 1233,1228 2719,1613 4402,1697 1734,98 6933,98 8667,0 1683,-80 3173,-464 4402,-1697 1228,-1228 1613,-2719 1697,-4402 98,-1734 98,-6928 0,-8663zm-2241 10523c-366,919 -1073,1627 -1997,1997 -1383,548 -4664,422 -6192,422 -1528,0 -4814,122 -6192,-422 -919,-366 -1627,-1073 -1997,-1997 -548,-1383 -422,-4664 -422,-6192 0,-1528 -122,-4814 422,-6192 366,-919 1073,-1627 1997,-1997 1383,-548 4664,-422 6192,-422 1528,0 4814,-122 6192,422 919,366 1627,1073 1997,1997 548,1383 422,4664 422,6192 0,1528 127,4814 -422,6192z"/>
 </g>
</svg>
