<?xml version="1.0" encoding="UTF-8"?>
<!DOCTYPE svg PUBLIC "-//W3C//DTD SVG 1.1//EN" "http://www.w3.org/Graphics/SVG/1.1/DTD/svg11.dtd">
<!-- Creator: CorelDRAW Home & Student X6 -->
<svg xmlns="http://www.w3.org/2000/svg" xml:space="preserve" width="210mm" height="210mm" version="1.1" style="shape-rendering:geometricPrecision; text-rendering:geometricPrecision; image-rendering:optimizeQuality; fill-rule:evenodd; clip-rule:evenodd"
viewBox="0 0 21000 21000"
 xmlns:xlink="http://www.w3.org/1999/xlink">
 <defs>
  <style type="text/css">
   <![CDATA[
    .fil0 {fill:white}
   ]]>
  </style>
 </defs>
 <g id="Warstwa_x0020_1">
  <metadata id="CorelCorpID_0Corel-Layer"/>
  <path class="fil0" d="M18750 0l-16500 0c-1242,0 -2250,1008 -2250,2250l0 16500c0,1242 1008,2250 2250,2250l6434 0 0 -7140 -2953 0 0 -3360 2953 0 0 -2561c0,-2913 1734,-4523 4391,-4523 1272,0 2603,227 2603,227l0 2859 -1466 0c-1444,0 -1895,896 -1895,1815l0 2182 3224 0 -516 3360 -2708 0 0 7140 6434 0c1242,0 2250,-1008 2250,-2250l0 -16500c0,-1242 -1008,-2250 -2250,-2250z"/>
 </g>
</svg>
